<svg width="23" height="9" viewBox="0 0 23 9" fill="none" xmlns="http://www.w3.org/2000/svg">
<path d="M1.10795 8.8125H-5.52833e-06L3.20454 0.085227H4.29545L7.49999 8.8125H6.39204L3.78409 1.46591H3.7159L1.10795 8.8125ZM1.51704 5.40341H5.98295V6.34091H1.51704V5.40341ZM11.1946 8.93182C10.6207 8.93182 10.1264 8.8267 9.71164 8.61648C9.29687 8.40625 8.97727 8.1179 8.75284 7.75142C8.5284 7.38494 8.41619 6.96591 8.41619 6.49432C8.41619 6.13068 8.49289 5.80824 8.6463 5.52699C8.80255 5.2429 9.01704 4.98011 9.28977 4.73864C9.56534 4.49432 9.8821 4.25 10.2401 4.00568L11.5014 3.06818C11.7486 2.90625 11.946 2.73295 12.0937 2.5483C12.2443 2.36364 12.3196 2.12216 12.3196 1.82386C12.3196 1.60227 12.2216 1.38778 12.0256 1.1804C11.8324 0.973011 11.5781 0.869318 11.2628 0.869318C11.0412 0.869318 10.8452 0.926136 10.6747 1.03977C10.5071 1.15057 10.375 1.29261 10.2784 1.46591C10.1847 1.63636 10.1378 1.8125 10.1378 1.99432C10.1378 2.19886 10.1932 2.40625 10.304 2.61648C10.4176 2.82386 10.5611 3.03693 10.7344 3.25568C10.9105 3.47159 11.0923 3.69318 11.2798 3.92045L15.2855 8.8125H14.0753L10.7685 4.82386C10.4616 4.45455 10.1832 4.11932 9.93323 3.81818C9.68323 3.51705 9.48437 3.22017 9.33664 2.92756C9.18891 2.63494 9.11505 2.31818 9.11505 1.97727C9.11505 1.58523 9.2017 1.24148 9.37499 0.946022C9.55113 0.647727 9.79687 0.416193 10.1122 0.25142C10.4304 0.0838068 10.8026 0 11.2287 0C11.6662 0 12.0426 0.0852273 12.3579 0.255682C12.6733 0.423295 12.9162 0.646307 13.0866 0.924716C13.2571 1.20028 13.3423 1.5 13.3423 1.82386C13.3423 2.24148 13.2386 2.60369 13.0312 2.91051C12.8239 3.21733 12.5412 3.50284 12.1832 3.76705L10.4446 5.0625C10.0526 5.35227 9.78693 5.63352 9.64772 5.90625C9.50852 6.17898 9.43891 6.375 9.43891 6.49432C9.43891 6.76705 9.50994 7.02131 9.65198 7.2571C9.79403 7.4929 9.99431 7.68324 10.2528 7.82812C10.5114 7.97301 10.8139 8.04545 11.1605 8.04545C11.4901 8.04545 11.8111 7.97585 12.1236 7.83665C12.4361 7.6946 12.7187 7.49006 12.9716 7.22301C13.2273 6.95597 13.429 6.63494 13.5767 6.25994C13.7273 5.88494 13.8026 5.46307 13.8026 4.99432H14.7741C14.7741 5.57386 14.7074 6.04687 14.5739 6.41335C14.4403 6.77983 14.2898 7.06676 14.1222 7.27415C13.9545 7.48153 13.8196 7.63636 13.7173 7.73864C13.6832 7.78125 13.652 7.82386 13.6236 7.86648C13.5952 7.90909 13.5639 7.9517 13.5298 7.99432C13.2486 8.30966 12.8935 8.54545 12.4645 8.7017C12.0355 8.85511 11.6122 8.93182 11.1946 8.93182ZM16.8463 8.8125V0.412499H22.6063V1.1805H17.7343V8.0445H22.7863V8.8125H16.8463ZM17.6383 4.9245V4.1685H22.0783V4.9245H17.6383Z" fill="black"/>
</svg>
