<svg width="400" height="40" viewBox="0 0 400 50" fill="none" xmlns="http://www.w3.org/2000/svg">
<path d="M115.54 15.896L112.02 25.208H119.06L115.54 15.896ZM105.14 34.552H107.956L116.596 11.64H117.364L126.068 34.552H128.916V35H119.06V34.552H122.612L119.252 25.656H111.828L108.468 34.552H112.02V35H105.14V34.552ZM129.755 34.552H132.219V21.72H129.755V21.272H134.907V24.504H134.971C135.056 24.184 135.195 23.8213 135.387 23.416C135.579 23.0107 135.845 22.6267 136.187 22.264C136.528 21.88 136.933 21.56 137.403 21.304C137.893 21.048 138.48 20.92 139.163 20.92C139.653 20.92 140.08 21.0053 140.443 21.176C140.805 21.3253 141.104 21.528 141.339 21.784C141.573 22.0187 141.744 22.296 141.851 22.616C141.957 22.936 142.011 23.256 142.011 23.576C142.011 24.28 141.851 24.7493 141.531 24.984C141.211 25.2187 140.837 25.336 140.411 25.336C139.472 25.336 139.003 25.0373 139.003 24.44C139.003 24.248 139.024 24.0987 139.067 23.992C139.109 23.864 139.152 23.7467 139.195 23.64C139.259 23.512 139.312 23.3733 139.355 23.224C139.397 23.0747 139.419 22.8613 139.419 22.584C139.419 21.9013 139.045 21.56 138.299 21.56C137.957 21.56 137.595 21.688 137.211 21.944C136.827 22.2 136.464 22.5733 136.123 23.064C135.803 23.5547 135.525 24.152 135.291 24.856C135.077 25.5387 134.971 26.328 134.971 27.224V34.552H137.755V35H129.755V34.552ZM142.466 21.272H144.93V17.144C145.101 17.208 145.261 17.2613 145.41 17.304C145.559 17.3467 145.815 17.368 146.178 17.368C146.498 17.368 146.775 17.336 147.01 17.272C147.245 17.1867 147.469 17.0587 147.682 16.888V21.272H152.226V21.72H147.682V32.184C147.682 32.7813 147.735 33.272 147.842 33.656C147.97 34.0187 148.13 34.3067 148.322 34.52C148.514 34.712 148.717 34.84 148.93 34.904C149.165 34.968 149.389 35 149.602 35C150.349 35 150.946 34.7333 151.394 34.2C151.863 33.6453 152.162 33.016 152.29 32.312L152.738 32.472C152.674 32.7493 152.578 33.0587 152.45 33.4C152.322 33.7413 152.119 34.072 151.842 34.392C151.586 34.6907 151.245 34.936 150.818 35.128C150.391 35.3413 149.858 35.448 149.218 35.448C147.618 35.448 146.498 35.1387 145.858 34.52C145.239 33.9013 144.93 33.0267 144.93 31.896V21.72H142.466V21.272ZM163.842 26.616C163.885 26.3173 163.906 26.04 163.906 25.784C163.906 25.528 163.906 25.2613 163.906 24.984C163.906 24.2587 163.831 23.6613 163.682 23.192C163.554 22.7227 163.362 22.3493 163.106 22.072C162.871 21.7947 162.573 21.6027 162.21 21.496C161.869 21.368 161.495 21.304 161.09 21.304C160.365 21.304 159.767 21.4533 159.298 21.752C158.829 22.0293 158.455 22.4133 158.178 22.904C157.901 23.3947 157.687 23.96 157.538 24.6C157.41 25.24 157.325 25.912 157.282 26.616H163.842ZM157.25 27.064C157.25 27.2773 157.239 27.5013 157.218 27.736C157.218 27.9493 157.218 28.2267 157.218 28.568C157.218 29.272 157.261 30.008 157.346 30.776C157.431 31.544 157.613 32.2373 157.89 32.856C158.189 33.4747 158.615 33.9867 159.17 34.392C159.746 34.7973 160.503 35 161.442 35C162.381 35 163.149 34.8613 163.746 34.584C164.365 34.3067 164.845 33.976 165.186 33.592C165.549 33.1867 165.815 32.7813 165.986 32.376C166.157 31.9707 166.285 31.64 166.37 31.384L166.85 31.48C166.786 31.7147 166.658 32.056 166.466 32.504C166.295 32.9307 166.007 33.368 165.602 33.816C165.218 34.2427 164.685 34.6267 164.002 34.968C163.341 35.288 162.477 35.448 161.41 35.448C160.343 35.448 159.351 35.2773 158.434 34.936C157.538 34.5947 156.759 34.104 156.098 33.464C155.437 32.824 154.925 32.0667 154.562 31.192C154.199 30.296 154.018 29.304 154.018 28.216C154.018 27.2773 154.199 26.3707 154.562 25.496C154.946 24.6 155.458 23.8107 156.098 23.128C156.759 22.4453 157.527 21.9013 158.402 21.496C159.277 21.0693 160.215 20.856 161.218 20.856C161.815 20.856 162.455 20.9627 163.138 21.176C163.821 21.3893 164.45 21.7413 165.026 22.232C165.623 22.7013 166.114 23.3307 166.498 24.12C166.903 24.9093 167.106 25.8907 167.106 27.064H157.25ZM187.436 14.776C187.436 15.3307 187.586 15.992 187.884 16.76C188.204 17.528 188.556 18.296 188.94 19.064C189.303 18.8507 189.655 18.6267 189.996 18.392C190.359 18.1573 190.668 17.88 190.924 17.56C191.202 17.24 191.426 16.8667 191.596 16.44C191.767 16.0133 191.852 15.512 191.852 14.936C191.852 14.2107 191.671 13.5707 191.308 13.016C190.967 12.4613 190.37 12.184 189.516 12.184C188.962 12.184 188.471 12.4293 188.044 12.92C187.639 13.4107 187.436 14.0293 187.436 14.776ZM186.284 20.664C185.175 21.24 184.29 21.912 183.628 22.68C182.967 23.4267 182.636 24.4187 182.636 25.656C182.636 26.616 182.807 27.6293 183.148 28.696C183.49 29.7413 183.938 30.7013 184.492 31.576C185.047 32.4507 185.666 33.176 186.348 33.752C187.052 34.3067 187.756 34.584 188.46 34.584C189.228 34.584 189.943 34.4027 190.604 34.04C191.287 33.656 191.927 33.1867 192.524 32.632L186.284 20.664ZM194.668 30.072C195.287 29.0267 195.703 27.992 195.916 26.968C196.151 25.944 196.268 24.92 196.268 23.896C196.268 22.872 196.215 22.0613 196.108 21.464C196.023 20.8453 195.863 20.376 195.628 20.056C195.394 19.736 195.074 19.5333 194.668 19.448C194.284 19.3413 193.794 19.288 193.196 19.288V18.84H199.276V19.288C198.722 19.288 198.274 19.3627 197.932 19.512C197.591 19.6613 197.324 19.896 197.132 20.216C196.962 20.536 196.844 20.952 196.78 21.464C196.738 21.9547 196.716 22.552 196.716 23.256C196.716 24.1307 196.674 24.9093 196.588 25.592C196.503 26.2747 196.386 26.904 196.236 27.48C196.087 28.0347 195.895 28.568 195.66 29.08C195.426 29.5707 195.17 30.0613 194.892 30.552C195.447 31.576 195.938 32.3867 196.364 32.984C196.791 33.56 197.282 33.848 197.836 33.848C198.178 33.848 198.444 33.752 198.636 33.56C198.85 33.368 199.01 33.1227 199.116 32.824C199.223 32.5253 199.298 32.2053 199.34 31.864C199.383 31.5013 199.404 31.1493 199.404 30.808H199.852C199.852 31.704 199.735 32.4507 199.5 33.048C199.266 33.624 198.967 34.0933 198.604 34.456C198.263 34.8187 197.868 35.0747 197.42 35.224C196.972 35.3733 196.546 35.448 196.14 35.448C195.692 35.448 195.308 35.3947 194.988 35.288C194.668 35.2027 194.38 35.064 194.124 34.872C193.89 34.6587 193.666 34.4027 193.452 34.104C193.239 33.8053 193.004 33.4533 192.748 33.048C192.492 33.304 192.172 33.5707 191.788 33.848C191.404 34.1253 190.967 34.3813 190.476 34.616C190.007 34.8507 189.484 35.0427 188.908 35.192C188.332 35.3627 187.714 35.448 187.052 35.448C185.708 35.448 184.578 35.192 183.66 34.68C182.743 34.1467 181.996 33.5173 181.42 32.792C180.866 32.0453 180.471 31.2667 180.236 30.456C180.002 29.624 179.884 28.92 179.884 28.344C179.884 27.2347 180.076 26.264 180.46 25.432C180.866 24.6 181.367 23.8747 181.964 23.256C182.583 22.616 183.255 22.0613 183.98 21.592C184.706 21.1227 185.41 20.696 186.092 20.312C185.858 19.8427 185.623 19.2987 185.388 18.68C185.154 18.04 185.036 17.272 185.036 16.376C185.036 15.6507 185.164 15.0107 185.42 14.456C185.676 13.88 186.007 13.3893 186.412 12.984C186.818 12.5787 187.276 12.2693 187.788 12.056C188.322 11.8427 188.855 11.736 189.388 11.736C190.199 11.736 190.882 11.992 191.436 12.504C192.012 13.016 192.3 13.816 192.3 14.904C192.3 15.544 192.194 16.1093 191.98 16.6C191.788 17.0693 191.532 17.4853 191.212 17.848C190.914 18.2107 190.572 18.52 190.188 18.776C189.804 19.032 189.442 19.256 189.1 19.448L194.668 30.072ZM212.257 34.552H215.809V12.664H212.257V12.216H230.561V17.752H230.209C229.932 16.92 229.633 16.1947 229.313 15.576C228.993 14.936 228.609 14.4027 228.161 13.976C227.713 13.528 227.18 13.1973 226.561 12.984C225.942 12.7707 225.196 12.664 224.321 12.664H219.009V22.552H221.089C221.793 22.552 222.39 22.488 222.881 22.36C223.372 22.232 223.788 21.9973 224.129 21.656C224.492 21.2933 224.79 20.8133 225.025 20.216C225.281 19.5973 225.526 18.808 225.761 17.848H226.113V27.8H225.761C225.612 27.1813 225.452 26.584 225.281 26.008C225.132 25.432 224.908 24.92 224.609 24.472C224.332 24.024 223.948 23.672 223.457 23.416C222.988 23.1387 222.369 23 221.601 23H219.009V34.552H225.057C226.23 34.552 227.201 34.3067 227.969 33.816C228.758 33.304 229.398 32.7067 229.889 32.024C230.38 31.32 230.742 30.5947 230.977 29.848C231.212 29.1013 231.361 28.4827 231.425 27.992H231.777V35H212.257V34.552ZM235.62 30.52H235.972C236.121 31.032 236.313 31.5547 236.548 32.088C236.783 32.6 237.092 33.08 237.476 33.528C237.881 33.9547 238.372 34.3067 238.948 34.584C239.524 34.8613 240.217 35 241.028 35C241.711 35 242.319 34.7973 242.852 34.392C243.385 33.9653 243.652 33.2827 243.652 32.344C243.652 31.5333 243.439 30.968 243.012 30.648C242.607 30.3067 242.127 30.04 241.572 29.848L239.076 28.984C238.756 28.8773 238.404 28.7493 238.02 28.6C237.657 28.4293 237.316 28.2053 236.996 27.928C236.676 27.6293 236.409 27.256 236.196 26.808C236.004 26.36 235.908 25.784 235.908 25.08C235.908 24.4827 236.025 23.928 236.26 23.416C236.495 22.904 236.815 22.456 237.22 22.072C237.625 21.688 238.105 21.3893 238.66 21.176C239.236 20.9627 239.855 20.856 240.516 20.856C240.985 20.856 241.359 20.8987 241.636 20.984C241.935 21.048 242.191 21.1227 242.404 21.208C242.617 21.272 242.809 21.3467 242.98 21.432C243.151 21.496 243.353 21.528 243.588 21.528C243.823 21.528 243.993 21.4427 244.1 21.272H244.452V24.92H244.1C243.951 24.4507 243.78 24.0027 243.588 23.576C243.396 23.128 243.161 22.7333 242.884 22.392C242.628 22.0507 242.297 21.784 241.892 21.592C241.508 21.4 241.049 21.304 240.516 21.304C239.492 21.304 238.692 21.5387 238.116 22.008C237.561 22.456 237.284 23.064 237.284 23.832C237.284 24.5147 237.519 25.0373 237.988 25.4C238.479 25.7413 239.193 26.0613 240.132 26.36L242.468 27.128C243.471 27.4693 244.292 27.9387 244.932 28.536C245.572 29.1333 245.892 29.9227 245.892 30.904C245.892 31.48 245.775 32.0453 245.54 32.6C245.327 33.1547 244.996 33.6453 244.548 34.072C244.121 34.4773 243.588 34.808 242.948 35.064C242.329 35.32 241.615 35.448 240.804 35.448C240.335 35.448 239.897 35.3947 239.492 35.288C239.108 35.2027 238.745 35.1067 238.404 35C238.084 34.8933 237.785 34.7973 237.508 34.712C237.231 34.6053 236.975 34.552 236.74 34.552C236.505 34.552 236.335 34.6053 236.228 34.712C236.121 34.7973 236.036 34.8933 235.972 35H235.62V30.52ZM247.997 21.272H250.461V17.144C250.632 17.208 250.792 17.2613 250.941 17.304C251.09 17.3467 251.346 17.368 251.709 17.368C252.029 17.368 252.306 17.336 252.541 17.272C252.776 17.1867 253 17.0587 253.213 16.888V21.272H257.757V21.72H253.213V32.184C253.213 32.7813 253.266 33.272 253.373 33.656C253.501 34.0187 253.661 34.3067 253.853 34.52C254.045 34.712 254.248 34.84 254.461 34.904C254.696 34.968 254.92 35 255.133 35C255.88 35 256.477 34.7333 256.925 34.2C257.394 33.6453 257.693 33.016 257.821 32.312L258.269 32.472C258.205 32.7493 258.109 33.0587 257.981 33.4C257.853 33.7413 257.65 34.072 257.373 34.392C257.117 34.6907 256.776 34.936 256.349 35.128C255.922 35.3413 255.389 35.448 254.749 35.448C253.149 35.448 252.029 35.1387 251.389 34.52C250.77 33.9013 250.461 33.0267 250.461 31.896V21.72H247.997V21.272ZM261.085 13.816C261.085 13.3467 261.245 12.952 261.565 12.632C261.907 12.2907 262.312 12.12 262.781 12.12C263.251 12.12 263.645 12.2907 263.965 12.632C264.307 12.952 264.477 13.3467 264.477 13.816C264.477 14.2853 264.307 14.6907 263.965 15.032C263.645 15.352 263.251 15.512 262.781 15.512C262.312 15.512 261.907 15.352 261.565 15.032C261.245 14.6907 261.085 14.2853 261.085 13.816ZM259.005 34.552H261.469V21.72H259.005V21.272H264.221V34.552H266.685V35H259.005V34.552ZM268.474 34.552H270.938V12.376H268.474V11.928H273.69V34.552H276.154V35H268.474V34.552ZM281.687 28.152C281.687 29.6667 281.804 30.872 282.039 31.768C282.274 32.664 282.583 33.3573 282.967 33.848C283.351 34.3173 283.799 34.6267 284.311 34.776C284.823 34.9253 285.367 35 285.943 35C286.519 35 287.063 34.9253 287.575 34.776C288.087 34.6267 288.535 34.3173 288.919 33.848C289.303 33.3573 289.612 32.664 289.847 31.768C290.082 30.872 290.199 29.6667 290.199 28.152C290.199 26.872 290.114 25.8053 289.943 24.952C289.772 24.0773 289.506 23.3733 289.143 22.84C288.802 22.2853 288.364 21.8907 287.831 21.656C287.298 21.4213 286.668 21.304 285.943 21.304C285.218 21.304 284.588 21.4213 284.055 21.656C283.522 21.8907 283.074 22.2853 282.711 22.84C282.37 23.3733 282.114 24.0773 281.943 24.952C281.772 25.8053 281.687 26.872 281.687 28.152ZM278.487 28.152C278.487 27.1067 278.711 26.136 279.159 25.24C279.628 24.344 280.215 23.576 280.919 22.936C281.644 22.2747 282.444 21.7627 283.319 21.4C284.215 21.0373 285.09 20.856 285.943 20.856C286.796 20.856 287.66 21.0373 288.535 21.4C289.431 21.7627 290.231 22.2747 290.935 22.936C291.66 23.576 292.247 24.344 292.695 25.24C293.164 26.136 293.399 27.1067 293.399 28.152C293.399 29.1547 293.186 30.104 292.759 31C292.332 31.8747 291.767 32.6427 291.063 33.304C290.38 33.9653 289.591 34.488 288.695 34.872C287.799 35.256 286.882 35.448 285.943 35.448C285.004 35.448 284.087 35.256 283.191 34.872C282.295 34.488 281.495 33.9653 280.791 33.304C280.108 32.6427 279.554 31.8747 279.127 31C278.7 30.104 278.487 29.1547 278.487 28.152Z" fill="#E5E7EB"/>
</svg>
